<svg width="240" height="83" viewBox="0 0 240 83" fill="none" xmlns="http://www.w3.org/2000/svg">
<g clip-path="url(#clip0_0_4)">
<path d="M29.8961 0C33.9647 0 37.2682 3.33085 37.2682 7.43326C37.2682 11.5372 33.9647 14.8665 29.8961 14.8665C25.8274 14.8665 22.5239 11.5357 22.5239 7.43326C22.5239 3.33085 25.8274 0 29.8961 0Z" fill="#7B2F92"/>
<path d="M59.792 0H45.0477V14.8665H59.792V0Z" fill="#CE036A"/>
<path d="M7.37213 22.7106C11.4408 22.7106 14.7443 26.0415 14.7443 30.1439C14.7443 34.2479 11.4408 37.5771 7.37213 37.5771C3.30346 37.5771 0 34.2479 0 30.1455C0 26.0415 3.30346 22.7106 7.37213 22.7106Z" fill="#7B2F92"/>
<path d="M37.2682 22.7106H22.5239V37.5771H37.2682V22.7106Z" fill="#CE036A"/>
<path d="M52.4199 22.7106C56.4885 22.7106 59.792 26.0415 59.792 30.1439C59.792 34.2479 56.4885 37.5771 52.4199 37.5771C48.3512 37.5771 45.0477 34.2463 45.0477 30.1439C45.0477 26.0415 48.3512 22.7106 52.4199 22.7106Z" fill="#7B2F92"/>
<path d="M82.3174 22.7106H67.5731V37.5771H82.3174V22.7106Z" fill="#CE036A"/>
<path d="M14.7443 45.4229H0V60.2894H14.7443V45.4229Z" fill="#CE036A"/>
<path d="M29.8961 45.4229C33.9647 45.4229 37.2682 48.7537 37.2682 52.8561C37.2682 56.9585 33.9647 60.2894 29.8976 60.2894H29.8945C25.8258 60.2894 22.5239 56.9585 22.5239 52.8577C22.5239 48.7553 25.8274 45.4244 29.8961 45.4244V45.4229Z" fill="#7B2F92"/>
<path d="M59.792 45.4229H45.0477V60.2894H59.792V45.4229Z" fill="#CE036A"/>
<path d="M74.9437 45.4229C79.0123 45.4229 82.3142 48.7537 82.3142 52.8545C82.3142 56.9585 79.0108 60.2878 74.9437 60.2878H74.9421C70.8734 60.2878 67.5715 56.9569 67.5715 52.8561C67.5715 48.7521 70.875 45.4229 74.9437 45.4229Z" fill="#7B2F92"/>
<path d="M37.2682 68.1335H22.5239V83H37.2682V68.1335Z" fill="#CE036A"/>
<path fill-rule="evenodd" clip-rule="evenodd" d="M52.4199 68.1335C56.4745 68.1335 59.792 71.4784 59.792 75.5652C59.792 79.655 56.4745 82.9984 52.4199 82.9984C48.3652 82.9984 45.0477 79.6535 45.0477 75.5667C45.0477 71.4769 48.3652 68.1335 52.4199 68.1335Z" fill="#7B2F92"/>
<path fill-rule="evenodd" clip-rule="evenodd" d="M125.944 34.4376L115.385 59.2418C114.756 60.6814 113.501 61.4294 112.246 61.4294C110.761 61.4294 109.219 60.3929 108.764 58.7243L98.5454 21.8325H105.966L112.873 47.7893L122.69 24.5376C123.147 23.3881 124.46 22.408 125.944 22.408C127.427 22.408 128.742 23.3881 129.197 24.5376L139.016 47.7893L145.921 21.8325H153.342L143.123 58.7243C142.666 60.3929 141.126 61.4294 139.643 61.4294C138.388 61.4294 137.131 60.6798 136.503 59.2418L125.944 34.4376ZM193.213 51.128V49.5754C193.213 44.7423 189.675 40.9425 184.594 39.9059L165.759 36.1642C164.901 35.9933 162.961 35.4742 162.961 33.6896V32.1355C162.961 30.467 164.332 29.0854 165.986 29.0854H206.42L209.113 22.2433L209.277 21.8325H165.986C160.361 21.8325 155.712 26.4053 155.712 32.0791V33.6896C155.712 38.4663 159.194 42.3225 164.332 43.3591L183.281 47.1008C184.138 47.2733 186.02 47.7908 186.02 49.5754V51.128C186.02 52.8295 184.568 54.1797 182.939 54.1797H147.239L145.231 61.431H182.939C188.647 61.431 193.213 56.8848 193.213 51.128ZM216.599 30.525C210.309 46.3167 210.197 46.6884 204.441 61.431H196.621C205.449 38.8709 209.882 27.5715 209.919 27.5329C210.833 25.5193 212.373 21.8356 216.826 21.8356H219.794C224.246 21.8356 225.786 25.5193 226.701 27.5329C226.701 27.6092 231.133 38.9086 239.998 61.431H232.178C225.956 45.4887 226.638 47.1416 220.022 30.525C219.565 29.3755 219.394 29.2014 219.223 29.2014H217.398C217.227 29.2014 217.056 29.3755 216.599 30.525Z" fill="#381653"/>
</g>
<defs>
<clipPath id="clip0_0_4">
<rect width="240" height="83" fill="white"/>
</clipPath>
</defs>
</svg>
